<svg xmlns="http://www.w3.org/2000/svg" viewBox="0 0 800 438">
<g transform="translate(0,438) scale(0.1,-0.1)" fill="#000000">
<path d="M3845 4280 c-166 -7 -452 -44 -571 -73 -45 -12 -150 -17 -429 -20
-471 -7 -628 -25 -880 -102 -237 -72 -441 -138 -475 -156 -19 -9 -69 -32 -110
-49 -247 -107 -612 -375 -844 -620 -180 -191 -367 -566 -422 -845 -26 -134
-24 -309 5 -405 96 -313 369 -587 796 -795 267 -131 683 -281 910 -329 66 -14
195 -41 286 -60 258 -55 496 -85 859 -109 l335 -22 36 -72 c85 -171 208 -279
420 -367 122 -50 207 -71 434 -106 l200 -32 490 -1 c517 -2 606 3 939 49 196
27 246 43 246 80 0 35 -48 39 -239 20 -91 -10 -213 -22 -271 -27 -169 -16
-1177 -5 -1327 15 -350 46 -570 135 -706 285 -50 56 -95 136 -83 148 4 4 134
11 289 14 270 7 596 30 682 49 22 5 105 18 185 30 146 21 439 80 625 125 55
13 210 45 345 71 297 56 812 183 911 225 39 17 117 46 173 65 221 77 590 284
761 428 95 79 151 151 210 267 35 68 81 139 126 191 38 46 81 106 95 134 28
57 53 180 54 260 1 132 -58 274 -160 387 -76 83 -237 205 -382 289 -61 35
-165 106 -232 159 -353 279 -522 380 -861 514 -173 69 -683 224 -802 244 -32
6 -121 23 -198 39 -77 16 -205 37 -285 46 -80 9 -199 24 -265 32 -234 30 -519
38 -870 24z m815 -124 c211 -17 552 -68 745 -112 239 -54 716 -199 855 -259
277 -121 430 -202 469 -248 18 -22 4 -22 -61 2 -111 41 -486 135 -618 155
-206 32 -270 47 -506 121 -209 66 -580 153 -799 189 -22 4 -128 23 -235 42
-107 19 -243 44 -301 54 -58 11 -187 24 -285 31 -98 6 -186 15 -193 19 -14 7
35 15 149 23 111 7 605 -3 780 -17z m-1924 -88 c-22 -11 -87 -38 -145 -60
-119 -44 -403 -208 -545 -315 -121 -91 -342 -349 -440 -516 -52 -87 -76 -141
-122 -266 -19 -51 -57 -133 -85 -181 -72 -126 -174 -362 -195 -455 -14 -59
-19 -119 -19 -230 0 -139 2 -154 27 -213 43 -104 88 -171 182 -269 146 -154
247 -221 512 -341 139 -64 489 -186 564 -197 25 -4 86 -17 135 -31 105 -28
449 -89 583 -103 51 -6 97 -13 102 -16 6 -3 10 -20 10 -37 l0 -31 -177 7
c-229 9 -517 32 -613 50 -41 8 -102 17 -135 21 -223 22 -748 153 -1006 250
-462 174 -690 305 -904 520 -130 130 -185 212 -232 347 -70 199 -18 509 137
813 119 235 227 366 480 583 185 159 342 263 544 362 255 126 511 211 836 281
134 28 282 42 495 47 l50 1 -39 -21z m1024 -23 c471 -55 691 -86 855 -120 94
-20 220 -45 280 -55 61 -11 139 -27 175 -35 36 -8 91 -20 122 -26 31 -5 62
-16 68 -24 15 -19 -13 -22 -220 -30 -91 -3 -222 -10 -292 -16 -84 -6 -158 -6
-215 1 -287 33 -997 43 -1240 16 -344 -37 -762 -160 -1068 -312 -136 -68 -367
-222 -458 -304 -37 -35 -71 -59 -75 -56 -19 19 164 275 286 399 186 190 451
352 758 465 113 42 340 107 422 122 79 15 365 3 602 -25z m458 -381 c57 -6 61
-18 9 -29 -17 -4 -117 -36 -222 -70 -329 -109 -632 -271 -854 -458 -107 -89
-323 -307 -404 -407 -130 -161 -238 -352 -292 -515 -29 -88 -50 -291 -40 -380
9 -73 52 -196 86 -249 17 -25 29 -50 27 -55 -4 -13 -211 69 -329 131 -172 89
-389 271 -500 418 -103 136 -159 296 -159 452 1 137 17 262 39 306 25 49 236
246 369 345 116 86 273 179 377 224 44 19 115 50 157 69 230 99 525 171 884
214 134 15 209 18 479 14 176 -2 344 -7 373 -10z m1472 -25 c115 -14 212 -48
507 -177 475 -208 846 -444 1098 -697 115 -115 138 -150 143 -215 9 -128 -49
-315 -144 -457 -66 -99 -223 -262 -305 -317 -54 -36 -259 -120 -368 -152 -31
-9 -87 -29 -125 -45 -107 -46 -106 -47 -106 71 l0 101 -47 50 c-85 91 -237
145 -523 185 -138 20 -713 22 -838 4 -379 -55 -790 -173 -1042 -298 -214 -107
-390 -236 -468 -344 -34 -48 -34 -48 -90 -48 -129 0 -517 72 -599 112 -87 41
-216 219 -248 343 -40 157 -7 367 90 560 120 240 384 544 655 755 258 201 643
379 1038 480 265 68 391 75 609 35 396 -74 677 -169 806 -276 39 -32 43 -47
22 -100 -18 -48 78 -67 120 -24 61 61 -5 171 -157 263 -76 45 -236 109 -348
138 -163 43 -200 54 -200 62 0 10 421 3 520 -9z m813 -160 c98 -25 427 -154
547 -214 94 -48 125 -77 222 -210 71 -98 86 -123 98 -166 13 -46 -8 -36 -91
39 -41 37 -94 80 -119 96 -25 16 -82 58 -127 93 -119 93 -369 246 -518 318
-139 68 -142 77 -12 44z m1030 -504 c166 -132 235 -231 258 -371 9 -59 9 -84
-4 -147 -18 -89 -50 -165 -72 -173 -22 -9 -24 -6 -36 62 -6 34 -34 104 -66
168 -41 81 -60 134 -74 203 -12 62 -37 133 -74 213 -30 67 -55 126 -55 132 0
12 -8 18 123 -87z m-6103 -499 c0 -122 84 -362 163 -466 83 -108 257 -278 350
-341 51 -35 107 -75 125 -91 18 -15 37 -28 42 -28 5 0 67 -27 137 -59 71 -32
191 -82 268 -110 181 -67 205 -78 363 -173 85 -51 174 -95 250 -123 150 -55
173 -66 169 -79 -6 -16 -137 -8 -337 21 -320 46 -762 174 -1066 308 -57 25
-203 110 -273 158 -126 86 -271 256 -312 366 -47 126 -35 324 32 518 60 174
89 207 89 99z m6145 -128 c8 -29 15 -80 15 -115 0 -94 -22 -129 -141 -223
-137 -108 -145 -101 -49 46 44 68 81 155 125 296 10 31 22 55 26 52 5 -3 15
-28 24 -56z m-1775 -469 c220 -20 396 -74 466 -144 45 -45 23 -132 -55 -213
-40 -41 -65 -50 -295 -107 -415 -103 -873 -165 -1321 -180 -236 -8 -969 22
-1021 42 -24 9 -13 24 82 105 157 136 306 214 618 324 281 100 497 152 731
179 135 15 597 11 795 -6z m1600 -61 c-94 -85 -203 -160 -366 -252 -293 -165
-514 -259 -514 -217 0 5 55 37 123 72 67 34 178 100 246 146 68 46 198 122
290 168 91 46 180 93 196 104 17 12 39 21 50 21 16 -1 11 -9 -25 -42z m-960
-383 c0 -8 -141 -77 -199 -96 -86 -30 -107 -22 -50 20 42 31 249 95 249 76z
m-595 -154 c-3 -5 -54 -28 -113 -51 -340 -133 -632 -206 -987 -246 -198 -22
-577 -22 -770 0 -157 18 -410 62 -464 81 -39 13 -50 39 -31 74 9 19 20 21 93
21 45 0 181 -7 302 -16 307 -23 944 -14 1190 15 294 35 460 61 607 95 158 37
182 40 173 27z m-2554 -86 c39 -8 72 -15 74 -15 3 0 -1 -11 -7 -25 -6 -14 -20
-25 -30 -25 -26 0 -167 48 -195 66 -54 34 -10 34 158 -1z m604 -340 c252 -6
322 -11 311 -23 -8 -8 -456 -31 -617 -31 -142 -1 -179 5 -179 30 0 33 29 40
135 34 55 -3 213 -7 350 -10z M717 2910 c-54 -43 -71 -118 -47 -215 6 -22 10
-103 10 -180 1 -174 8 -210 55 -253 42 -38 53 -37 79 7 17 29 17 38 6 110 -25
154 9 148 130 -22 52 -73 96 -107 119 -92 6 3 11 29 11 57 0 39 -8 65 -31 107
-40 70 -102 152 -127 168 -18 11 -16 15 35 67 99 103 138 193 98 226 -33 27
-71 -1 -178 -133 -21 -26 -44 -47 -51 -47 -19 0 -27 39 -20 107 9 97 -31 138
-89 93z M2046 2848 c-24 -22 -26 -30 -32 -148 -4 -69 -3 -192 1 -273 7 -142 8
-149 30 -157 33 -13 61 -2 75 28 15 33 26 342 16 464 -7 78 -10 87 -32 97 -32
14 -29 15 -58 -11z M3576 2874 c-13 -12 -16 -41 -16 -147 0 -132 -5 -177 -20
-177 -8 0 -71 125 -121 239 -40 90 -99 108 -132 39 -35 -71 -61 -406 -38 -488
9 -32 53 -55 80 -41 26 14 31 31 41 139 5 52 11 96 13 99 5 5 132 -143 175
-204 15 -22 34 -34 58 -39 65 -12 67 -6 65 258 -1 128 -4 250 -8 271 -9 58
-62 86 -97 51z M4316 2859 c-9 -13 -16 -40 -16 -61 0 -55 21 -62 128 -48 48 7
103 10 122 8 l35 -3 -3 -190 c-3 -207 1 -227 51 -255 27 -14 29 -14 48 9 17
21 19 40 20 180 0 86 4 176 7 201 l7 45 85 -3 c91 -4 160 9 180 33 19 23 3 63
-33 82 -28 15 -70 18 -323 21 l-291 4 -17 -23z"/>
</g>
</svg>